<mxfile host="app.diagrams.net" agent="Mozilla/5.0 (X11; Linux x86_64; rv:128.0) Gecko/20100101 Firefox/128.0" version="26.0.16">
  <diagram id="C5RBs43oDa-KdzZeNtuy" name="Page-1">
    <mxGraphModel dx="814" dy="422" grid="1" gridSize="10" guides="1" tooltips="1" connect="1" arrows="1" fold="1" page="1" pageScale="1" pageWidth="827" pageHeight="1169" math="0" shadow="0">
      <root>
        <mxCell id="WIyWlLk6GJQsqaUBKTNV-0" />
        <mxCell id="WIyWlLk6GJQsqaUBKTNV-1" parent="WIyWlLk6GJQsqaUBKTNV-0" />
        <mxCell id="zBfkskAnI6LJzO5J9r86-2" style="edgeStyle=orthogonalEdgeStyle;rounded=0;orthogonalLoop=1;jettySize=auto;html=1;exitX=0.5;exitY=0;exitDx=0;exitDy=0;entryX=0.5;entryY=0;entryDx=0;entryDy=0;" edge="1" parent="WIyWlLk6GJQsqaUBKTNV-1" source="zBfkskAnI6LJzO5J9r86-0" target="zBfkskAnI6LJzO5J9r86-1">
          <mxGeometry relative="1" as="geometry" />
        </mxCell>
        <mxCell id="zBfkskAnI6LJzO5J9r86-3" value="BOTAO_FECHAR_ON" style="edgeLabel;html=1;align=center;verticalAlign=middle;resizable=0;points=[];" vertex="1" connectable="0" parent="zBfkskAnI6LJzO5J9r86-2">
          <mxGeometry x="-0.3081" y="2" relative="1" as="geometry">
            <mxPoint x="39" as="offset" />
          </mxGeometry>
        </mxCell>
        <mxCell id="zBfkskAnI6LJzO5J9r86-0" value="&lt;div&gt;ABERTA&lt;/div&gt;&lt;div&gt;&lt;br&gt;&lt;/div&gt;estado = 0" style="ellipse;whiteSpace=wrap;html=1;aspect=fixed;" vertex="1" parent="WIyWlLk6GJQsqaUBKTNV-1">
          <mxGeometry x="160" y="110" width="110" height="110" as="geometry" />
        </mxCell>
        <mxCell id="zBfkskAnI6LJzO5J9r86-4" style="edgeStyle=orthogonalEdgeStyle;rounded=0;orthogonalLoop=1;jettySize=auto;html=1;exitX=0.5;exitY=1;exitDx=0;exitDy=0;entryX=0.5;entryY=1;entryDx=0;entryDy=0;" edge="1" parent="WIyWlLk6GJQsqaUBKTNV-1" source="zBfkskAnI6LJzO5J9r86-1" target="zBfkskAnI6LJzO5J9r86-0">
          <mxGeometry relative="1" as="geometry" />
        </mxCell>
        <mxCell id="zBfkskAnI6LJzO5J9r86-5" value="BOTAO_ABRIR_ON" style="edgeLabel;html=1;align=center;verticalAlign=middle;resizable=0;points=[];" vertex="1" connectable="0" parent="zBfkskAnI6LJzO5J9r86-4">
          <mxGeometry x="-0.0192" relative="1" as="geometry">
            <mxPoint as="offset" />
          </mxGeometry>
        </mxCell>
        <mxCell id="zBfkskAnI6LJzO5J9r86-1" value="FECHADA&lt;div&gt;&lt;br&gt;&lt;/div&gt;estado = 1" style="ellipse;whiteSpace=wrap;html=1;aspect=fixed;" vertex="1" parent="WIyWlLk6GJQsqaUBKTNV-1">
          <mxGeometry x="340" y="110" width="110" height="110" as="geometry" />
        </mxCell>
      </root>
    </mxGraphModel>
  </diagram>
</mxfile>
